<?xml version="1.0" encoding="UTF-8" standalone="no" ?>
<!DOCTYPE svg PUBLIC "-//W3C//DTD SVG 1.1//EN" "http://www.w3.org/Graphics/SVG/1.1/DTD/svg11.dtd">
<svg xmlns="http://www.w3.org/2000/svg" xmlns:xlink="http://www.w3.org/1999/xlink" version="1.1" width="1280" height="1024" viewBox="0 0 1280 1024" xml:space="preserve">
<desc>Created with Fabric.js 5.3.0</desc>
<defs>
</defs>
<g transform="matrix(1 0 0 1 640 512)" id="background-logo"  >
<rect style="stroke: none; stroke-width: 0; stroke-dasharray: none; stroke-linecap: butt; stroke-dashoffset: 0; stroke-linejoin: miter; stroke-miterlimit: 4; fill: rgb(255,255,255); fill-opacity: 0; fill-rule: nonzero; opacity: 1;"  paint-order="stroke"  x="-640" y="-512" rx="0" ry="0" width="1280" height="1024" />
</g>
<g transform="matrix(1.9211538461538462 0 0 1.9211538461538462 640 414.55049920822574)" id="logo-logo"  >
<g style=""  paint-order="stroke"   >
		<g transform="matrix(0.601735378447282 0 0 0.601735378447282 0 69.5149410720453)"  >
<path style="stroke: none; stroke-width: 1; stroke-dasharray: none; stroke-linecap: butt; stroke-dashoffset: 0; stroke-linejoin: miter; stroke-miterlimit: 4; fill: rgb(138,43,226); fill-rule: nonzero; opacity: 1;"  paint-order="stroke"  transform=" translate(-249.99999235, -365.52410884999995)" d="M 307.5236511 349.921051 L 306.2611999 359.127655 L 193.7388 359.127655 L 192.4763488 349.921051 L 59.2932129 349.921051 L 59.2932129 356.3439941 C 59.2932129 370.0313415 70.3890457 381.1271667 84.07652279999999 381.1271667 L 415.92344660000003 381.1271667 C 429.61094660000003 381.1271667 440.7067718 370.0313415 440.7067718 356.3439941 L 440.7067718 349.921051 L 307.5236511 349.921051 z" stroke-linecap="round" />
</g>
		<g transform="matrix(0.601735378447282 0 0 0.601735378447282 0.00000463336243683443 -7.121489463357932)"  >
<path style="stroke: none; stroke-width: 1; stroke-dasharray: none; stroke-linecap: butt; stroke-dashoffset: 0; stroke-linejoin: miter; stroke-miterlimit: 4; fill: rgb(0,0,0); fill-rule: nonzero; opacity: 1;"  paint-order="stroke"  transform=" translate(-250.00000005000004, -238.1650848)" d="M 110.7898407 179.0751801 C 113.6543579 179.0751801 116.0954666 181.27919010000002 116.3382263 184.1832276 C 116.4612961 185.66572580000002 115.9994964 187.1087189 115.0386352 188.24458320000002 C 114.0777664 189.3804627 112.7318878 190.07371530000003 111.2482528 190.19792180000002 C 108.2053375 190.44519050000002 105.48985280000001 188.17005930000002 105.233551 185.10908510000002 C 105.11048120000001 183.62657170000003 105.5711517 182.1835938 106.5331421 181.04771430000002 C 107.4940033 179.91185000000002 108.83988950000001 179.21858220000001 110.3235245 179.09437570000003 C 110.4804688 179.081955 110.6351547 179.0751801 110.7898407 179.0751801 z M 367.3457642 138.5702209 L 283.6161194 138.5702209 C 277.5369263 147.1242675 270.1946716 156.4329681 261.5288696 165.7619934 C 233.7200317 195.69705199999999 186.2863769 231.9261169 117.7329406 235.6769867 C 116.7569732 240.2654877 112.9196014 243.8980866 108.01113120000001 244.30653379999998 C 107.7017593 244.33250429999998 107.39238730000001 244.34605409999998 107.085266 244.34605409999998 C 104.50866690000001 244.34605409999998 102.04045860000001 243.4450226 100.0521239 241.76155089999997 C 97.8255385 239.87820429999996 96.4661101 237.24063109999997 96.2244796 234.33433529999996 C 95.98172749999999 231.42803949999995 96.8850021 228.60191339999997 98.76947009999999 226.37533569999997 C 100.65280139999999 224.14875789999996 103.29037459999999 222.78932189999998 106.19554129999999 222.54769899999997 C 109.10522449999999 222.29928589999997 111.92909999999999 223.20935059999996 114.15454859999998 225.09268189999997 C 115.80627439999998 226.48979189999997 116.97475429999999 228.30467229999996 117.56978599999998 230.33366399999997 C 197.8335113 225.89419559999996 249.34972369999997 175.80361939999997 276.8248824 138.57022099999998 L 259.453575 138.57022099999998 C 237.0167159 166.77084359999998 197.7043685 203.79183969999997 142.1769026 211.03852849999998 C 141.8736036 213.00061039999997 141.0694044 214.85543829999997 139.7545698 216.4099274 C 137.8712385 218.6365052 135.2336653 219.99592589999997 132.3273695 220.2375641 C 132.0179976 220.26353459999999 131.7086256 220.27708439999998 131.4014967 220.27708439999998 C 128.82489759999999 220.27708439999998 126.3566969 219.3760529 124.36835459999999 217.69258119999998 C 122.14177679999999 215.80923459999997 120.78234079999999 213.17166139999998 120.54071789999999 210.26536559999997 C 120.2979582 207.35906979999996 121.20236949999999 204.53294369999998 123.08570079999998 202.30636599999997 C 124.96903209999998 200.07978829999996 127.60660529999998 198.72035219999998 130.5129011 198.47872929999997 C 133.4158094 198.23822029999997 136.2453382 199.13925179999998 138.471916 201.02371219999998 C 139.96825389999998 202.28942879999997 141.0315779 203.91391 141.6686628 205.7135621 C 193.24541449999998 198.915268 230.4242017 165.4836732 252.5897901 138.570221 L 231.57221199999998 138.570221 C 211.86945319999998 157.8695984 177.6394575 180.1259461 121.53855869999998 186.3455811 C 121.23271149999998 188.3007508 120.43077059999999 190.1488038 119.12030769999998 191.6973572 C 117.23697639999999 193.9239502 114.59940319999998 195.283371 111.69310739999999 195.5250092 C 111.3859938 195.5509797 111.08000929999999 195.5634003 110.77741219999999 195.5634003 C 105.16466499999999 195.5634003 100.38068369999999 191.2457276 99.90646339999998 185.55393990000002 C 99.66370369999999 182.6476441 100.56810739999997 179.8203889 102.45144629999997 177.59494030000002 C 104.33477759999997 175.36836250000002 106.97235079999997 174.00892650000003 109.87864659999997 173.76730360000002 C 112.78155489999997 173.52453630000002 115.61107609999996 174.42895520000002 117.83765389999996 176.31228650000003 C 119.33991979999996 177.58294690000002 120.40705849999996 179.21449290000004 121.04273969999997 181.02246110000002 C 172.02262099999996 175.35142530000002 204.30747209999998 156.1892244 223.81572709999998 138.57022110000003 L 87.4441986 138.57022110000003 C 84.1590881 138.57022110000003 81.496109 141.23333760000003 81.496109 144.51831070000003 L 81.496109 269.36727920000004 C 186.6770477 268.4646912 311.1850281 233.171936 367.3457642 138.5702209 z M 106.6404037 227.8747711 C 103.5794219 228.1299438 101.2963867 230.8284912 101.55155939999999 233.8894806 C 101.67576589999999 235.3731079 102.36902609999999 236.7189941 103.50489799999998 237.6798554 C 104.64189899999998 238.6418458 106.08489219999998 239.1025239 107.56626119999999 238.9794465 C 110.62725059999998 238.7242738 112.91028589999999 236.0257264 112.65510549999999 232.9647523 C 112.5309066 231.4811097 111.8376388 230.1352235 110.7017669 229.17436229999998 C 109.6867065 228.3151246 108.42663569999999 227.85557569999997 107.1123657 227.85557569999997 C 106.9554214 227.8555756 106.7984772 227.8623505 106.6404037 227.8747711 z M 412.5556641 138.5702209 L 410.7380982 138.5702209 C 388.5418702 199.62037650000002 344.2390442 249.44152830000002 278.81985480000003 286.8023681 C 239.07774360000002 309.49765010000004 191.5304719 326.92794790000005 140.84443670000002 337.7599487 L 412.55567940000003 337.7599487 C 415.84077460000003 337.7599487 418.50389110000003 335.0968322 418.50389110000003 331.811737 L 418.50389110000003 144.5183105 C 418.5038757 141.2333374 415.8407593 138.5702209 412.5556641 138.5702209 z M 130.9577789 203.8058014 C 129.4741363 203.93000790000002 128.1282654 204.62327580000002 127.1673965 205.7602692 C 126.20540609999999 206.8961487 125.74473569999999 208.3379975 125.8678054 209.82051090000002 C 126.12523639999999 212.88374330000002 128.8328094 215.1712952 131.8825072 214.9104767 C 133.3661345 214.7862854 134.71202069999998 214.0930176 135.672882 212.9560089 C 136.63487239999998 211.8201446 137.09555049999997 210.3782806 136.97247309999997 208.8957825 C 136.84828179999997 207.4121399 136.15501399999997 206.0662537 135.01800529999997 205.1053925 C 134.00294489999996 204.2461548 132.74400319999998 203.78660589999998 131.42973319999996 203.78660589999998 C 131.2727966 203.7866058 131.1158447 203.7933807 130.9577789 203.8058014 z" stroke-linecap="round" />
</g>
		<g transform="matrix(0.601735378447282 0 0 0.601735378447282 -6.230682635525454 -15.795067030753813)"  >
<path style="stroke: none; stroke-width: 1; stroke-dasharray: none; stroke-linecap: butt; stroke-dashoffset: 0; stroke-linejoin: miter; stroke-miterlimit: 4; fill: rgb(138,43,226); fill-rule: nonzero; opacity: 1;"  paint-order="stroke"  transform=" translate(-239.64546965, -223.75081255000003)" d="M 81.496109 287.8655701 L 81.496109 328.62878420000004 C 210.7671814 314.499115 357.72995 252.9693909 397.7948303 118.8728409 C 347.4411926 241.4795532 204.9725189 286.8725281 81.496109 287.8655701 z" stroke-linecap="round" />
</g>
</g>
</g>
<g transform="matrix(1.9211538461538462 0 0 1.9211538461538462 640.3990848033546 641.8590161716863)" id="text-logo"  >
<g style=""  paint-order="stroke"   >
		<g transform="matrix(1 0 0 1 5.684342e-14 0)" id="text-logo-path-0"  >
<path style="stroke: none; stroke-width: 0; stroke-dasharray: none; stroke-linecap: butt; stroke-dashoffset: 0; stroke-linejoin: miter; stroke-miterlimit: 4; fill: rgb(8,30,63); fill-rule: nonzero; opacity: 1;"  paint-order="stroke"  transform=" translate(-228.985, 14.35)" d="M 3.12 -28.7 L 3.12 0 L 24.35 0 L 24.35 -6.15 L 9.68 -6.15 L 9.68 -11.28 L 21.48 -11.28 L 21.48 -17.02 L 9.68 -17.02 L 9.68 -22.55 L 24.35 -22.55 L 24.35 -28.7 Z M 62.85 -29.36 L 52.89 -19.35 L 42.93 -29.36 L 38.01 -24.31 L 47.93 -14.35 L 38.01 -4.39 L 42.93 0.66 L 52.89 -9.35 L 62.85 0.66 L 67.77 -4.39 L 57.85 -14.35 L 67.77 -24.31 Z M 80.77 0 L 87.33 0 L 87.33 -6.27 L 92.91 -6.27 C 99.22 -6.27 104.06 -10.91 104.06 -17.55 C 104.06 -23.86 99.47 -28.7 92.91 -28.7 L 80.77 -28.7 Z M 87.33 -12.42 L 87.33 -22.55 L 92 -22.55 C 94.92 -22.55 97.09 -20.5 97.09 -17.51 C 97.09 -14.56 95.08 -12.42 92 -12.42 Z M 119.06 -28.7 L 119.06 0 L 140.3 0 L 140.3 -6.15 L 125.62 -6.15 L 125.62 -28.7 Z M 166.67 0.66 C 175.32 0.66 181.63 -5.29 181.63 -14.31 C 181.63 -23.04 175.73 -29.36 166.67 -29.36 C 158.01 -29.36 151.7 -23.37 151.7 -14.31 C 151.7 -5.66 157.65 0.66 166.67 0.66 Z M 158.55 -14.31 C 158.55 -19.07 161.75 -22.88 166.67 -22.88 C 171.34 -22.88 174.78 -19.19 174.78 -14.31 C 174.78 -9.63 171.54 -5.82 166.67 -5.82 C 161.99 -5.82 158.55 -9.47 158.55 -14.31 Z M 195.9 -28.7 L 195.9 0 L 202.46 0 L 202.46 -28.7 Z M 242.27 -28.7 L 216.89 -28.7 L 216.89 -22.55 L 226.28 -22.55 L 226.28 0 L 232.84 0 L 232.84 -22.55 L 242.27 -22.55 Z M 255.14 -28.7 L 264.57 0 L 271.95 0 L 277.9 -17.26 L 283.8 0 L 291.18 0 L 300.61 -28.7 L 293.44 -28.7 L 287.33 -10.17 L 280.73 -28.7 L 275.03 -28.7 L 268.43 -10.17 L 262.32 -28.7 Z M 325.29 0.66 C 333.94 0.66 340.26 -5.29 340.26 -14.31 C 340.26 -23.04 334.36 -29.36 325.29 -29.36 C 316.64 -29.36 310.33 -23.37 310.33 -14.31 C 310.33 -5.66 316.27 0.66 325.29 0.66 Z M 317.18 -14.31 C 317.18 -19.07 320.37 -22.88 325.29 -22.88 C 329.97 -22.88 333.41 -19.19 333.41 -14.31 C 333.41 -9.63 330.17 -5.82 325.29 -5.82 C 320.62 -5.82 317.18 -9.47 317.18 -14.31 Z M 354.12 0 L 360.68 0 L 360.68 -6.27 L 366.25 -6.27 L 370.11 0 L 377.9 0 L 372.57 -8.12 C 375.52 -10.04 377.4 -13.41 377.4 -17.55 C 377.4 -23.86 372.81 -28.7 366.25 -28.7 L 354.12 -28.7 Z M 360.68 -12.42 L 360.68 -22.55 L 365.35 -22.55 C 368.26 -22.55 370.44 -20.5 370.44 -17.51 C 370.44 -14.56 368.43 -12.42 365.35 -12.42 Z M 392.53 -28.7 L 392.53 0 L 399.09 0 L 399.09 -6.03 L 404.05 -11.85 L 411.8 0 L 420 0 L 408.2 -16.77 L 418.36 -28.7 L 410.57 -28.7 L 399.09 -15.5 L 399.09 -28.7 Z M 442.59 -29.36 C 435.99 -29.36 430.79 -25.42 430.79 -20.13 C 430.79 -13.69 438.41 -12.1 442.76 -11.07 C 445.46 -10.41 447.88 -9.8 447.88 -7.95 C 447.88 -6.72 446.74 -5.9 443.62 -5.9 C 439.27 -5.9 437.92 -7.38 436.9 -9.84 L 430.7 -7.5 C 431.85 -3.53 435.75 0.66 443.25 0.66 C 450.02 0.66 454.85 -2.79 454.85 -8.32 C 454.85 -14.72 448.42 -16.28 443.87 -17.47 C 439.77 -18.53 437.76 -19.07 437.76 -20.46 C 437.76 -22.14 440.42 -22.8 442.51 -22.8 C 445.05 -22.8 446.65 -21.53 447.06 -20.34 L 453.54 -22.76 C 452.19 -26.24 448.46 -29.36 442.59 -29.36 Z" stroke-linecap="round" />
</g>
</g>
</g>
</svg>